<svg xmlns="http://www.w3.org/2000/svg" version="1.1" xmlns:xlink="http://www.w3.org/1999/xlink" xmlns:svgjs="http://svgjs.dev/svgjs" width="1440" height="560" preserveAspectRatio="none" viewBox="0 0 1440 560"><g mask="url(&quot;#SvgjsMask1039&quot;)" fill="none"><rect width="1440" height="560" x="0" y="0" fill="rgba(139, 211, 221, 1)"></rect><path d="M0,695.381C126.838,714.996,223.931,585.803,333.102,518.317C444.498,449.455,592.603,414.605,646.952,295.453C701.299,176.306,630.772,41.584,609.496,-87.632C588.712,-213.86,610.193,-359.536,523.6,-453.702C437.308,-547.539,288.543,-530.296,167.016,-568.805C42.148,-608.373,-72.253,-709.345,-200.602,-683.187C-330.594,-656.694,-431.791,-546.941,-499.637,-432.938C-561.847,-328.406,-537.567,-200.101,-559.323,-80.419C-582.16,45.207,-693.691,176.965,-630.696,288.029C-566.409,401.372,-382.336,353.908,-272.877,424.605C-163.01,495.565,-129.254,675.392,0,695.381" fill="#64c4d2"></path><path d="M1440 1203.866C1560.726 1215.969 1674.564 1149.3200000000002 1774.7350000000001 1080.858 1872.8609999999999 1013.793 1977.902 933.69 2004.7240000000002 817.9010000000001 2030.739 705.597 1930.8890000000001 605.832 1911.0810000000001 492.269 1892.135 383.64599999999996 1940.079 267.757 1891.502 168.77100000000002 1836.966 57.639999999999986 1746.195-43.71100000000001 1628.791-82.96199999999999 1510.147-122.62699999999995 1383.194-77.481 1263.474-41.192999999999984 1144.676-5.184999999999945 1026.3600000000001 37.664999999999964 939.202 126.05599999999998 848.697 217.841 762.618 334.269 766.195 463.121 769.692 589.102 886.191 676.404 957.367 780.4110000000001 1015.602 865.5070000000001 1068.277 949.799 1145.787 1017.8050000000001 1234.813 1095.915 1322.156 1192.0520000000001 1440 1203.866" fill="#b2e2e8"></path></g><defs><mask id="SvgjsMask1039"><rect width="1440" height="560" fill="#ffffff"></rect></mask></defs></svg>